<?xml version="1.0" encoding="UTF-8" standalone="no"?>
<!DOCTYPE svg PUBLIC "-//W3C//DTD SVG 1.1//EN" "http://www.w3.org/Graphics/SVG/1.1/DTD/svg11.dtd">
<svg width="100%" height="100%" viewBox="0 0 1141 515" version="1.1" xmlns="http://www.w3.org/2000/svg" xmlns:xlink="http://www.w3.org/1999/xlink" xml:space="preserve" xmlns:serif="http://www.serif.com/" style="fill-rule:evenodd;clip-rule:evenodd;stroke-linejoin:round;stroke-miterlimit:2;">
    <g transform="matrix(1,0,0,1,-52.424183,-90.534876)">
        <g transform="matrix(1,0,0,1,-115,-392)">
            <g transform="matrix(1,0,0,1,-16,-27.781507)">
                <g transform="matrix(2.6875,0,0,2.6875,0,0)">
                    <path d="M236.045,285.454C230.292,317.669 222.836,343.597 162.249,378.059C152.465,383.624 150.922,383.175 131.211,370.999C62.806,328.742 67.917,286.417 68.601,227.5C68.732,216.232 71.338,215.985 82.491,214.435C139.622,206.494 146.115,184.795 157.232,190.979C190.518,209.494 197.919,209.879 229.551,215.239C238.41,216.74 236.822,220.403 236.858,260.499C236.873,276.76 236.807,276.689 236.045,285.454Z" style="fill:rgb(1,1,1);"/>
                </g>
                <g transform="matrix(2.6875,0,0,2.6875,0,0)">
                    <path d="M192.381,199.477C192.408,199.37 191.669,198.515 193.533,198.671C204.029,199.553 204.047,199.043 439.501,199.213C467.895,199.233 492.612,195.054 492.527,233.5C492.308,332.935 494.008,334.003 486.988,343.847C478.239,356.114 475.563,354.73 411.5,354.684C210.992,354.542 208.912,355.8 209.248,353.454C209.383,352.506 232.602,334.465 240.659,299.531C241.929,294.021 243.868,295.813 249.499,295.789C308.857,295.534 485.267,296.221 486.411,295.373C487.326,294.694 487.142,294.372 487.176,233.498C487.178,228.427 489.045,214.271 473.584,206.33C469.909,204.443 469.636,204.763 280.501,204.753C209.202,204.749 209.074,205.027 201.389,202.871C199.453,202.328 197.49,201.887 195.541,201.393C195.299,201.332 194.678,201.174 192.573,200.418L192.381,199.477Z" style="fill:rgb(2,3,2);"/>
                </g>
                <g transform="matrix(2.6875,0,0,2.6875,0,0)">
                    <path d="M351.491,282.058C331.754,282.133 327.45,282.69 327.342,280.528C327.306,279.806 327.306,221.537 327.358,220.476C327.453,218.543 328.451,218.392 351.5,218.807C356.8,218.902 371.691,218.063 381.108,231.774C385.181,237.705 397.352,280.713 351.491,282.058Z" style="fill:rgb(2,3,2);"/>
                </g>
                <g transform="matrix(2.6875,0,0,2.6875,0,0)">
                    <path d="M154.294,308.285C144.513,317.829 141.265,322.135 138.881,320.046C138.074,319.339 102.998,285.857 102.709,285.385C101.954,284.148 102.005,283.501 114.826,271.916C118.583,268.522 137.214,294.487 141.511,292.518C142.166,292.219 188.313,246.543 189.461,246.343C190.87,246.099 191.164,246.169 203.153,257.84C205.582,260.204 202.679,260.612 154.294,308.285Z" style="fill:rgb(253,253,252);"/>
                </g>
                <g transform="matrix(2.6875,0,0,2.6875,0,0)">
                    <path d="M400.497,282.078C398.922,282.086 388.656,282.922 389.393,280.483C390.983,275.22 408.926,228.109 410.656,223.566C411.779,220.617 410.964,218.813 416.501,218.801C425.817,218.781 430.578,218.234 431.466,220.516C444.668,254.461 444.619,254.446 445.786,257.387C454.874,280.29 455.683,281.469 453.681,281.982C453.649,281.99 440.942,282.683 439.639,281.351C437.853,279.527 435.845,267.802 432.502,267.482C431.282,267.365 411.531,267.341 410.494,267.461C408.089,267.739 408.862,268.774 405.074,279.325C404.054,282.166 403.517,281.904 400.497,282.078Z" style="fill:rgb(3,3,3);"/>
                </g>
                <g transform="matrix(2.6875,0,0,2.6875,0,0)">
                    <path d="M270.956,242.502C271.274,220.527 269.915,219.112 272.555,218.882C273.81,218.773 314.946,218.845 315.479,218.855C318.925,218.917 317.631,229.162 317.503,229.502C316.514,232.135 286.47,228.943 285.37,231.425C284.903,232.478 285.19,243.483 285.208,243.563C285.972,246.981 312.732,244.03 314.488,245.518C315.704,246.547 315.268,255.361 315.236,255.446C314.125,258.437 289.551,256.016 286.316,257.057C284.008,257.8 285.521,275.091 285.118,280.457C284.949,282.704 277.452,282.179 273.502,282.123C271.707,282.098 271.361,282.222 270.956,280.456C270.917,280.286 270.953,245.538 270.956,242.502Z" style="fill:rgb(2,3,3);"/>
                </g>
                <g transform="matrix(2.6875,0,0,2.6875,0,0)">
                    <path d="M355.441,270.05C347.439,270.419 342.06,271.249 341.909,267.491C341.888,266.984 341.876,232.557 341.877,232.522C341.974,228.551 358.122,230.257 361.592,232.347C374.575,240.168 376.018,265.877 355.441,270.05Z" style="fill:rgb(252,252,251);"/>
                </g>
                <g transform="matrix(2.6875,0,0,2.6875,0,0)">
                    <path d="M361.038,325.522C361.788,306.873 380.35,310.671 383.506,319.497C390.073,337.859 363.461,345.83 361.038,325.522Z" style="fill:rgb(249,249,247);"/>
                </g>
                <g transform="matrix(2.6875,0,0,2.6875,0,0)">
                    <path d="M440.505,336.847C437.263,336.773 434.13,338.674 434.161,332.493C434.245,315.438 433.27,312.686 437.501,312.683C443.668,312.679 449.883,311.522 454.249,318.645C455.598,320.847 456.284,327.111 454.076,331.255C451.271,336.519 441.679,336.812 440.505,336.847Z" style="fill:rgb(249,249,247);"/>
                </g>
                <g transform="matrix(2.6875,0,0,2.6875,0,0)">
                    <path d="M343.942,332.508C343.806,336.041 343.97,337.411 340.447,336.785C338.689,336.472 338.29,335.825 338.827,314.527C338.9,311.605 352.199,311.764 355.361,314.659C361.247,320.046 353.35,322.575 356.295,327.604C356.881,328.605 359.434,338.676 353.448,336.64C350.98,335.801 354.147,325.551 345.464,327.321C343.862,327.648 344.018,329.301 343.942,332.508Z" style="fill:rgb(246,246,245);"/>
                </g>
                <g transform="matrix(2.6875,0,0,2.6875,0,0)">
                    <path d="M295.475,336.833C293.9,336.282 293.869,336.346 293.774,336.238C292.884,335.222 293.299,313.805 293.518,313.509C294.304,312.444 301.774,312.618 302.496,312.635C303.595,312.66 314.733,312.919 311.929,322.629C310.16,328.76 300.712,327.866 300.529,327.875C295.989,328.093 302.111,336.327 295.475,336.833Z" style="fill:rgb(249,249,247);"/>
                </g>
                <g transform="matrix(2.6875,0,0,2.6875,0,0)">
                    <path d="M334.887,320.501C333.095,332.117 321.622,325.129 321.352,329.473C321.026,334.734 322.598,337.553 317.436,336.742C314.783,336.326 315.817,313.466 316.751,312.928C316.826,312.885 328.501,311.24 332.312,314.711C334.409,316.621 334.825,319.998 334.887,320.501Z" style="fill:rgb(246,246,244);"/>
                </g>
                <g transform="matrix(2.6875,0,0,2.6875,0,0)">
                    <path d="M287.511,336.848C282.84,336.286 285.126,333.331 282.41,331.647C281.452,331.053 274.241,330.637 273.45,332.47C273.221,332.999 270.439,339.439 267.488,336.515C266.301,335.339 266.818,335.008 273.663,316.565C274.819,313.45 274.782,312.585 279.495,312.69C281.949,312.745 281.681,313.688 288.763,332.398C289.831,335.218 290.401,336.202 287.511,336.848Z" style="fill:rgb(248,247,245);"/>
                </g>
                <g transform="matrix(2.6875,0,0,2.6875,0,0)">
                    <path d="M422.498,336.853C421.487,336.85 413.076,337.542 412.558,335.484C411.82,332.556 412.459,316.181 412.525,314.503C412.627,311.894 420.768,312.693 426.499,312.689C431.617,312.686 429.816,316.615 427.529,316.776C420.666,317.26 416.981,314.185 417.509,320.499C417.717,322.983 418.961,321.829 427.547,322.239C429.542,322.335 430.027,326.312 427.501,326.509C420.858,327.029 417.389,324.032 417.571,330.496C417.716,335.64 431.935,330.092 429.906,335.672C429.501,336.785 423.098,336.848 422.498,336.853Z" style="fill:rgb(248,248,246);"/>
                </g>
                <g transform="matrix(2.6875,0,0,2.6875,0,0)">
                    <path d="M398.169,331.108C401.959,320.067 403.35,310.001 408.318,312.843C409.794,313.688 401.897,336.196 399.557,336.748C392.69,338.366 392.975,331.433 387.169,316.634C385.76,313.042 386.811,311.393 390.406,312.845C393.283,314.007 396.917,331.673 397.5,331.644C397.785,331.63 397.884,331.122 398.169,331.108Z" style="fill:rgb(249,249,248);"/>
                </g>
                <g transform="matrix(2.6875,0,0,2.6875,0,0)">
                    <path d="M428.195,249.605C429.642,254.163 430.428,254.331 429.394,255.385C429.154,255.63 413.38,256.69 413.116,254.575C412.897,252.815 416.934,245.004 419.941,232.633C420.848,228.903 422.047,231.538 422.114,231.715C422.652,233.127 422.298,233.194 428.195,249.605Z" style="fill:rgb(250,250,248);"/>
                </g>
                <g transform="matrix(2.6875,0,0,2.6875,0,0)">
                    <path d="M366.163,324.484C367.792,312.163 376.998,316.382 378.545,320.481C383.053,332.433 367.238,339.874 366.163,324.484Z" style="fill:rgb(3,3,3);"/>
                </g>
                <g transform="matrix(2.6875,0,0,2.6875,0,0)">
                    <path d="M439.197,329.505C439.23,319.789 437.64,313.45 446.51,317.48C451.279,319.647 449.899,326.83 449.804,327.566C449.221,332.081 439.563,336.536 439.197,329.505Z" style="fill:rgb(3,4,3);"/>
                </g>
                <g transform="matrix(2.6875,0,0,2.6875,0,0)">
                    <path d="M302.523,323.899C299.184,323.664 298.113,323.45 298.486,318.498C298.849,313.678 311.762,318.516 305.312,323.202C304.426,323.847 304.42,323.59 302.523,323.899Z" style="fill:rgb(8,10,7);"/>
                </g>
                <g transform="matrix(2.6875,0,0,2.6875,0,0)">
                    <path d="M326.447,316.815C336.331,320.723 322.539,326.992 321.356,322.542C320.034,317.574 321.367,316.598 326.447,316.815Z" style="fill:rgb(2,2,1);"/>
                </g>
                <g transform="matrix(2.6875,0,0,2.6875,0,0)">
                    <path d="M343.958,320.49C344.534,315.596 346.075,315.291 350.653,317.183C356.708,319.685 345.636,328.199 343.958,320.49Z" style="fill:rgb(7,9,7);"/>
                </g>
                <g transform="matrix(2.6875,0,0,2.6875,0,0)">
                    <path d="M279.019,317.866C280.758,324.012 283.883,327.671 277.522,327.111C275.184,326.905 275.425,325.815 277.431,318.447C277.59,317.862 277.695,317.824 277.749,317.804C278.38,317.573 278.347,318.112 279.019,317.866Z" style="fill:rgb(15,16,14);"/>
                </g>
            </g>
        </g>
    </g>
</svg>
