<?xml version="1.0" encoding="UTF-8" standalone="no"?>
<!DOCTYPE svg PUBLIC "-//W3C//DTD SVG 1.1//EN" "http://www.w3.org/Graphics/SVG/1.1/DTD/svg11.dtd">
<svg width="100%" height="100%" viewBox="0 0 600 313" version="1.1" xmlns="http://www.w3.org/2000/svg" xmlns:xlink="http://www.w3.org/1999/xlink" xml:space="preserve" xmlns:serif="http://www.serif.com/" style="fill-rule:evenodd;clip-rule:evenodd;stroke-linejoin:round;stroke-miterlimit:2;">
    <g transform="matrix(1,0,0,1,19,3.988353)">
        <g transform="matrix(2.289979,0,0,2.289979,-41.545539,-7.288248)">
            <path d="M208.066,45.776C182.683,45.733 149.1,46.082 148.963,45.786C149.099,44.34 149.292,131.992 149.066,132.776C148.054,132.906 130.252,132.924 130.066,132.776C129.333,132.195 130.075,49.674 129.963,45.786C126.609,45.579 74.402,45.922 70.982,45.958C56.121,46.117 56.014,69.779 70.952,69.76C71.466,70.35 94.555,69.79 96.563,69.88C129.218,71.346 133.442,132.779 97.396,132.776C87.55,132.744 41.653,133.288 39.066,133.311C39.063,131.655 39.124,117.331 39.066,113.88C40.915,113.876 64.782,113.94 71.066,113.88C89.227,113.873 102.76,115.62 102.929,101.5C103.112,86.15 84.904,89.346 70.501,89.209C30.41,88.827 26.338,26.597 71.066,26.786C71.146,26.786 205.555,26.757 207.963,26.786C233.136,27.091 243.127,47.25 242.727,62.503C242.125,85.46 224.32,92.057 223.672,92.682C221.753,94.53 237.458,122.884 242.066,132.776C239.586,132.792 225.805,132.772 222.506,132.776C219.248,132.906 203.96,101.622 203.066,96.776C199.085,96.716 186.065,96.761 186.066,96.776C186.132,99.15 186.127,130.286 186.066,132.88C183.972,132.914 168.328,132.862 165.066,132.88C165.124,130.541 165.041,82.129 165.066,77.88C168.464,77.85 202.35,77.827 207.963,77.88C212.005,76.715 217.789,75.335 221.009,70.173C221.589,69.243 225.195,63.862 222.394,56.537C219.939,44.406 205.804,45.719 208.066,45.776Z" style="fill:rgb(57,61,63);"/>
        </g>
        <g transform="matrix(1.25901,0,0,1.25901,-96.702894,-8.074838)">
            <circle cx="466.661" cy="30.661" r="18.661" style="fill:rgb(5,150,105);"/>
        </g>
    </g>
</svg>
