<?xml version="1.0" encoding="UTF-8" standalone="no"?>
<!DOCTYPE svg PUBLIC "-//W3C//DTD SVG 1.1//EN" "http://www.w3.org/Graphics/SVG/1.1/DTD/svg11.dtd">
<svg width="100%" height="100%" viewBox="0 0 691 335" version="1.1" xmlns="http://www.w3.org/2000/svg" xmlns:xlink="http://www.w3.org/1999/xlink" xml:space="preserve" xmlns:serif="http://www.serif.com/" style="fill-rule:evenodd;clip-rule:evenodd;stroke-linejoin:round;stroke-miterlimit:2;">
    <g transform="matrix(0.654785,0,0,0.654589,-325.906013,-240.845868)">
        <path d="M668.251,368.47C728.732,367.359 792.142,368.31 852.756,368.376L1134.31,368.201C1134.71,400.446 1134.83,432.693 1134.68,464.94L1062.61,465.072C1062.01,481.624 1062.61,501.448 1062.63,518.301C1062.47,553.316 1062.54,588.332 1062.82,623.347L1062.96,878.651C1028.61,878.866 994.263,878.827 959.917,878.532L960.105,465.121L757.521,465.018L696.706,464.963C670.204,464.952 636.808,462.722 615.575,481.951C598.496,497.418 595.366,524.945 602.226,546.171C613.907,582.308 659.966,577.39 691.342,577.401L760.73,577.508C805.084,578.448 846.295,588.787 878.41,620.815C934.758,677.012 933.714,778.314 878.241,834.329C859.927,852.626 837.037,865.669 811.96,872.097C775.11,881.502 709.823,878.56 669.855,878.446L498.827,878.431L498.707,784.897L677.603,784.862C706.064,784.843 734.758,785.052 763.156,784.896C778.488,784.583 797.149,779.985 807.319,767.957C832.558,738.108 823.855,682.116 781.627,672.772C763.874,668.844 748.454,670.06 731.16,670.037C664.803,669.949 593.024,678.354 540.132,629.061C512.615,604.064 499.197,567.653 497.852,531.454C496.376,491.768 508.203,449.277 536.376,420.313C572.371,383.306 618.243,370.07 668.251,368.47Z" style="fill:#084A6D;fill-rule:nonzero;"/>
    </g>
    <g transform="matrix(0.654785,0,0,0.654589,-325.906013,-240.845868)">
        <path d="M1165.22,368.129L1309.3,368.219C1335.64,368.221 1372.63,367.254 1397.8,370.305C1416.62,372.586 1435.08,377.282 1452.7,384.276C1554.16,425.495 1581.14,545.387 1519.77,633.88C1502.41,658.914 1473.32,672.976 1445.87,684.421C1463.81,719.434 1483.8,754.286 1502.97,788.66C1519.34,818.668 1535.96,848.541 1552.81,878.276C1514,878.586 1475.18,878.628 1436.37,878.401C1424.33,857.853 1412.22,834.342 1400.84,813.248L1350.47,719.663L1341.03,701.75C1314.67,700.886 1282.34,701.227 1255.81,701.633C1254.58,723.131 1255.3,749.301 1255.27,771.121C1255.06,807.007 1255.1,842.894 1255.4,878.779L1153.12,878.519C1152.45,846.94 1153.07,813.061 1153.07,781.308L1153.25,605.922L1161.71,606.013L1300.13,606.282C1355.65,606.349 1443.04,617.509 1443.43,535.147C1443.81,454.342 1357.49,465.027 1301.74,464.993L1165.16,464.992L1165.22,368.129Z" style="fill:#084A6D;fill-rule:nonzero;"/>
    </g>
</svg>
