<?xml version="1.0" encoding="UTF-8" standalone="no"?>
<!DOCTYPE svg PUBLIC "-//W3C//DTD SVG 1.1//EN" "http://www.w3.org/Graphics/SVG/1.1/DTD/svg11.dtd">
<svg width="100%" height="100%" viewBox="0 0 1397 733" version="1.1" xmlns="http://www.w3.org/2000/svg" xmlns:xlink="http://www.w3.org/1999/xlink" xml:space="preserve" xmlns:serif="http://www.serif.com/" style="fill-rule:evenodd;clip-rule:evenodd;stroke-linejoin:round;stroke-miterlimit:2;">
    <g transform="matrix(1,0,0,1,-318.299388,-368.214852)">
        <path d="M1403.669,505.215L1080.437,505.444C1078.408,505.263 1070.359,505.117 1070.299,512.215C1070.369,516.014 1071.51,644.773 1071.51,644.773C1071.51,644.773 1070.019,1084.63 1070.299,1101C1065.019,1100.86 945.28,1100.92 936.299,1101L935.685,928.04C935.685,928.04 936.156,514.193 936.299,505.215C928.583,505.014 565.831,505.215 565.831,505.215C535.887,505.141 524.595,501.824 496.578,514.498C454.933,533.337 436.898,583.739 458.332,624.982C467.983,643.286 484.546,656.978 504.338,663.013C529.305,670.629 555.47,668.477 581.651,668.47L650.579,668.352C686.852,668.255 697.271,667.202 732.72,677.834C914.936,732.481 939.434,977.491 776.557,1071.68C733.73,1096.44 697.588,1100.85 649.153,1100.62C628.649,1100.52 608.145,1100.53 587.641,1100.67C499.907,1100.99 409.056,1099.25 321.594,1101C321.237,1095.98 320.635,1090.28 321.129,1085.34C320.469,1074.47 320.954,1058.96 320.957,1047.82C321.058,1021.2 320.984,994.578 320.736,967.959C321.976,966.229 321.783,965.679 324.527,965.612C332.777,965.412 341.777,965.662 350.042,965.703L405.636,965.783L615.585,965.383C639.09,965.115 672.275,967.853 694.159,961.493C775.667,937.807 771.324,819.534 688.292,801.987C673.277,798.768 655.506,799.853 640.002,799.85L546.929,799.786C526.877,799.735 504.319,801.336 484.697,797.125C440.104,787.557 408.005,768.105 376.052,736.563C346.578,707.467 325.37,664.225 320.292,622.95C315.198,581.541 319.777,536.041 336.835,497.711C354.34,458.376 392.405,416.592 435.417,394.42C489.31,366.638 528.9,368.525 587.157,368.414C587.157,368.414 1391.103,370.286 1403.669,370.215C1403.627,370.191 1403.669,389.195 1403.669,398.685C1403.669,421.185 1403.779,502.834 1403.669,505.215L1117.299,505.215" style="fill:#084A6D;fill-rule:nonzero;"/>
    </g>
    <g transform="matrix(1,0,0,1,-318.299388,-368.214852)">
        <path d="M1437.299,370.215C1437.234,367.573 1526.77,372.297 1561.04,386.101C1621.83,409.904 1670.3,457.444 1695.27,517.761C1720.79,577.095 1721.66,644.143 1697.68,704.116C1676.15,756.669 1631.15,802.759 1578.66,824.787C1577.12,827.557 1576.94,829.945 1578.57,832.766C1589.03,850.936 1718.798,1101.06 1715.058,1101C1670.018,1100.26 1610.25,1101.18 1565.26,1100.4C1559.1,1090.88 1439.16,856.926 1436.27,851.589C1423.01,851.883 1332.439,851.334 1326.299,851.215C1325.759,861.82 1325.99,909.28 1326.03,921.284C1326.03,921.284 1326.235,1097.999 1326.299,1101C1308.139,1100.22 1202.94,1100.19 1190.97,1101C1190.84,1084.77 1191.33,956 1191.33,956C1191.33,956 1189.61,740.535 1190.97,715.215C1199.475,715.295 1485.785,715.276 1496.82,713.763C1534.85,708.55 1572.74,672.672 1576.96,634.027C1579.96,606.553 1581.32,591.371 1569.38,565.713C1553.01,530.55 1516.599,518.279 1481.05,505.215C1474.376,505.24 1437.299,505.215 1437.299,505.215C1437.299,505.215 1437.489,377.836 1437.299,370.215Z" style="fill:#084A6D;fill-rule:nonzero;"/>
    </g>
</svg>
