<?xml version="1.0" encoding="UTF-8" standalone="no"?>
<!DOCTYPE svg PUBLIC "-//W3C//DTD SVG 1.1//EN" "http://www.w3.org/Graphics/SVG/1.1/DTD/svg11.dtd">
<svg width="100%" height="100%" viewBox="0 0 468 246" version="1.1" xmlns="http://www.w3.org/2000/svg" xmlns:xlink="http://www.w3.org/1999/xlink" xml:space="preserve" xmlns:serif="http://www.serif.com/" style="fill-rule:evenodd;clip-rule:evenodd;stroke-linejoin:round;stroke-miterlimit:2;">
    <g>
        <g transform="matrix(1,0,0,1,-790.708,-901.165272)">
            <path d="M937.389,903.254L1097.44,903.175C1119.12,903.136 1165.77,901.841 1185.57,903.923C1194.9,904.829 1204.02,907.241 1212.58,911.066C1273.26,938.494 1271.08,1032.13 1209.54,1053.93C1225.76,1081.04 1243.36,1115.06 1257.86,1143.18L1206.83,1143.32L1164.86,1061.96L1143.79,1062.03L1143.8,1037.75L1143.62,1016.97C1168.66,1017.16 1210.47,1021.77 1212.12,985.022C1214.12,940.353 1161.69,947.702 1131.51,947.713L1039.11,947.958L1039.08,1143.2L994.189,1143.21L993.995,947.076C985.075,947.071 978.192,947.374 969.292,948.06C963.47,925.669 955.551,917.09 937.389,903.254Z" style="fill:#084A6D;fill-rule:nonzero;"/>
        </g>
        <g transform="matrix(1,0,0,1,-790.708,-901.165272)">
            <path d="M869.688,901.425C886.949,899.91 910.036,905.082 924.099,915.39C945.342,930.961 952.407,950.48 956.584,975.147C941.038,975.023 925.491,975.005 909.945,975.094C908.029,960.999 903.983,952.241 888.367,946.388C862.329,936.628 819.706,960.039 847.382,987.667C854.478,992.795 866.348,997.056 874.701,999.131C925.264,1011.69 972.672,1029.93 957.33,1094.25C955.33,1100.94 952.32,1107.29 948.403,1113.08C934.014,1134.19 911.849,1142 887.917,1146.58L887.95,1100.77C903.669,1098.46 919.774,1087.48 915.299,1067.88C914.37,1063.81 906.838,1057.45 903.072,1055.59C875.407,1041.93 841.09,1039.93 816.253,1020.39C788.957,998.797 788.091,951.827 810.875,926.726C827.09,908.622 846.268,903.172 869.688,901.425Z" style="fill:#084A6D;fill-rule:nonzero;"/>
        </g>
        <g transform="matrix(1,0,0,1,-790.708,-901.165272)">
            <path d="M1079.06,965.29L1124.48,965.173C1123.23,1023.11 1124.39,1085.07 1124.79,1143.15L1078.96,1143.25L1079.06,965.29Z" style="fill:#084A6D;fill-rule:nonzero;"/>
        </g>
        <g transform="matrix(1,0,0,1,-790.708,-901.165272)">
            <path d="M790.708,1069.87L837.557,1069.7C841.534,1089.93 848.979,1096.89 869.221,1100.91C869.092,1116.17 869.267,1131.63 869.31,1146.91C823.433,1139.05 797.068,1116.87 790.708,1069.87Z" style="fill:#084A6D;fill-rule:nonzero;"/>
        </g>
    </g>
</svg>
