<?xml version="1.0" encoding="UTF-8" standalone="no"?>
<!DOCTYPE svg PUBLIC "-//W3C//DTD SVG 1.1//EN" "http://www.w3.org/Graphics/SVG/1.1/DTD/svg11.dtd">
<svg width="100%" height="100%" viewBox="0 0 2027 966" version="1.1" xmlns="http://www.w3.org/2000/svg" xmlns:xlink="http://www.w3.org/1999/xlink" xml:space="preserve" xmlns:serif="http://www.serif.com/" style="fill-rule:evenodd;clip-rule:evenodd;stroke-linejoin:round;stroke-miterlimit:2;">
    <g transform="matrix(1,0,0,1,-345,-274.5)">
        <g transform="matrix(0.998522,0,0,0.927625,-108.329064,-44.602952)">
            <path d="M2484,604.25L2484,1124.75C2484,1268.386 2375.666,1385 2242.228,1385L695.772,1385C562.334,1385 454,1268.386 454,1124.75L454,604.25C454,460.614 562.334,344 695.772,344L2242.228,344C2375.666,344 2484,460.614 2484,604.25Z" style="fill:rgb(8,74,109);"/>
        </g>
        <g transform="matrix(1,0,0,1,59.5,-17.67126)">
            <g transform="matrix(787.5,0,0,787.5,507,1036.937012)">
                <path d="M0.338,0.01C0.277,0.01 0.224,0.001 0.179,-0.018C0.134,-0.036 0.099,-0.064 0.074,-0.101C0.049,-0.138 0.036,-0.184 0.035,-0.24L0.2,-0.24C0.202,-0.217 0.209,-0.197 0.22,-0.181C0.231,-0.165 0.247,-0.153 0.267,-0.145C0.286,-0.137 0.309,-0.133 0.335,-0.133C0.359,-0.133 0.38,-0.137 0.397,-0.143C0.414,-0.15 0.427,-0.159 0.437,-0.171C0.446,-0.182 0.45,-0.196 0.45,-0.211C0.45,-0.225 0.446,-0.237 0.438,-0.247C0.429,-0.257 0.416,-0.265 0.399,-0.273C0.382,-0.28 0.36,-0.287 0.333,-0.293L0.256,-0.311C0.193,-0.325 0.144,-0.349 0.108,-0.381C0.072,-0.414 0.054,-0.457 0.054,-0.512C0.054,-0.557 0.066,-0.597 0.091,-0.63C0.115,-0.664 0.149,-0.69 0.191,-0.709C0.234,-0.728 0.283,-0.737 0.338,-0.737C0.394,-0.737 0.443,-0.728 0.484,-0.709C0.525,-0.69 0.557,-0.663 0.58,-0.629C0.603,-0.595 0.615,-0.555 0.615,-0.511L0.449,-0.511C0.447,-0.537 0.437,-0.558 0.417,-0.572C0.398,-0.587 0.371,-0.594 0.337,-0.594C0.314,-0.594 0.295,-0.591 0.279,-0.585C0.264,-0.579 0.252,-0.571 0.244,-0.56C0.236,-0.55 0.232,-0.537 0.232,-0.524C0.232,-0.509 0.237,-0.496 0.246,-0.486C0.255,-0.476 0.267,-0.467 0.283,-0.46C0.3,-0.454 0.318,-0.448 0.34,-0.443L0.403,-0.428C0.438,-0.421 0.469,-0.41 0.497,-0.398C0.524,-0.385 0.548,-0.369 0.567,-0.352C0.586,-0.334 0.6,-0.313 0.61,-0.29C0.62,-0.266 0.625,-0.24 0.625,-0.211C0.625,-0.165 0.614,-0.126 0.591,-0.092C0.568,-0.059 0.535,-0.034 0.492,-0.017C0.449,0.001 0.398,0.01 0.338,0.01Z" style="fill:white;fill-rule:nonzero;"/>
            </g>
            <g transform="matrix(787.5,0,0,787.5,1019.951848,1036.937012)">
                <path d="M0.032,-0.587L0.032,-0.728L0.644,-0.728L0.644,-0.587L0.425,-0.587L0.425,-0L0.252,-0L0.252,-0.587L0.032,-0.587Z" style="fill:white;fill-rule:nonzero;"/>
            </g>
            <g transform="matrix(787.5,0,0,787.5,1552.837417,1036.937012)">
                <path d="M0.057,-0L0.057,-0.728L0.355,-0.728C0.409,-0.728 0.457,-0.718 0.496,-0.698C0.536,-0.679 0.566,-0.651 0.588,-0.614C0.609,-0.578 0.62,-0.535 0.62,-0.486C0.62,-0.436 0.609,-0.393 0.587,-0.358C0.565,-0.323 0.534,-0.296 0.494,-0.278C0.453,-0.259 0.405,-0.25 0.35,-0.25L0.16,-0.25L0.16,-0.387L0.318,-0.387C0.345,-0.387 0.368,-0.39 0.386,-0.397C0.404,-0.405 0.418,-0.415 0.427,-0.43C0.436,-0.445 0.441,-0.463 0.441,-0.486C0.441,-0.509 0.436,-0.528 0.427,-0.543C0.418,-0.558 0.404,-0.569 0.386,-0.576C0.368,-0.584 0.345,-0.588 0.318,-0.588L0.229,-0.588L0.229,-0L0.057,-0ZM0.456,-0L0.279,-0.332L0.464,-0.332L0.645,-0L0.456,-0Z" style="fill:white;fill-rule:nonzero;"/>
            </g>
            <g transform="matrix(787.5,0,0,787.5,2074.248738,1036.937012)">
            </g>
        </g>
    </g>
</svg>
