<?xml version="1.0" encoding="UTF-8" standalone="no"?>
<!DOCTYPE svg PUBLIC "-//W3C//DTD SVG 1.1//EN" "http://www.w3.org/Graphics/SVG/1.1/DTD/svg11.dtd">
<svg width="100%" height="100%" viewBox="0 0 1525 591" version="1.1" xmlns="http://www.w3.org/2000/svg" xmlns:xlink="http://www.w3.org/1999/xlink" xml:space="preserve" xmlns:serif="http://www.serif.com/" style="fill-rule:evenodd;clip-rule:evenodd;stroke-linejoin:round;stroke-miterlimit:2;">
    <g transform="matrix(2.149414,0,0,2.149414,-249.42842,-277.588261)">
        <path d="M701.5,308.056C674.879,308.056 673.862,307.672 673.661,309.531C673.226,313.576 674.321,397.829 673.055,399.074C672.422,399.696 672.252,399.624 616.5,399.622C612.288,399.621 610.446,400.77 610.439,396.501C610.403,375.54 609.994,137.242 610.476,134.496C610.814,132.572 611.814,132.848 662.5,132.848C729.734,132.848 761.597,129.152 792.958,159.039C823.821,188.452 831.549,264.35 776.235,295.025C775.072,295.67 773.827,296.158 772.656,296.789C770.223,298.101 770.99,299.456 786.946,328.254C794.48,341.85 825.202,398.116 825.156,398.503C825.011,399.707 824.331,399.638 763.5,399.622C758.367,399.62 757.278,400.838 754.89,396.294C751.2,389.271 709.938,310.749 708.135,308.84C707.397,308.06 707.237,308.388 701.5,308.056Z" style="fill:rgb(254,254,254);"/>
    </g>
    <g transform="matrix(2.149414,0,0,2.149414,-249.42842,-277.588261)">
        <path d="M122.93,209.511C123.064,207.501 123.199,205.491 123.333,203.481C124.521,194.93 125.641,181.045 140.965,162.914C179.156,117.726 288.998,113.064 321.033,178.729C326.805,190.561 330.74,211.857 326.473,212.27C325.035,212.41 274.979,212.297 270.502,212.287C266.864,212.279 267.492,210.952 266.808,207.434C259.983,172.315 195.206,175.684 188.942,201.61C181.106,234.045 231.995,237.03 260.588,245.193C322.607,262.901 328.295,293.045 331.687,315.487L332.011,321.511C331.876,324.511 331.741,327.511 331.606,330.511C331.465,331.516 330.877,361.249 305.179,381.101C267.814,409.966 174.609,416.957 133.65,367.38C117.109,347.36 113.535,312.33 117.55,311.801C119.104,311.596 169.021,311.752 173.497,311.766C177.596,311.779 176.443,313.539 177.26,317.55C186.859,364.718 260.277,356.111 266.839,329.596C276.789,289.397 207.957,295.671 165.679,275.132C126.263,255.984 124.979,230.297 123.498,221.5C123.322,219.495 123.146,217.489 122.97,215.484C122.957,213.493 122.943,211.502 122.93,209.511Z" style="fill:rgb(254,254,254);"/>
    </g>
    <g transform="matrix(2.149414,0,0,2.149414,-249.42842,-277.588261)">
        <path d="M434.738,399.175C432.936,394.77 434.972,192.768 433.688,185.381C431.985,184.155 431.712,184.715 356.501,184.441C352.657,184.427 353.482,182.364 353.482,158.5C353.482,134.877 352.678,132.853 356.503,132.848C374.094,132.828 575.549,132.596 576.398,132.923C577.983,133.534 577.741,134.203 577.74,177.5C577.74,182.221 579.282,184.435 574.499,184.441C499.476,184.543 498.357,183.889 497.67,185.572C496.898,187.464 498.23,397.51 496.967,398.889C495.725,400.246 437.125,399.775 434.738,399.175Z" style="fill:rgb(254,254,254);"/>
    </g>
</svg>
