<?xml version="1.0" encoding="UTF-8" standalone="no"?>
<!DOCTYPE svg PUBLIC "-//W3C//DTD SVG 1.1//EN" "http://www.w3.org/Graphics/SVG/1.1/DTD/svg11.dtd">
<svg width="100%" height="100%" viewBox="0 0 2201 1192" version="1.1" xmlns="http://www.w3.org/2000/svg" xmlns:xlink="http://www.w3.org/1999/xlink" xml:space="preserve" xmlns:serif="http://www.serif.com/" style="fill-rule:evenodd;clip-rule:evenodd;stroke-linejoin:round;stroke-miterlimit:2;">
    <g transform="matrix(2.149414,0,0,2.149414,0,0)">
        <path d="M128.5,0L895.5,0C895.978,0.097 896.087,0.906 896.565,1.003C897.111,1.114 897.084,0.676 903.537,1.244C938.668,4.335 965.652,25.333 970.209,28.878C970.383,29.019 971.296,29.755 972.385,30.646C984.316,41.199 1004.579,57.246 1017.843,97.384C1023.814,115.454 1022.961,128.21 1022.997,128.421C1023.079,128.905 1023.916,129.016 1023.999,129.5L1023.999,425.5C1023.905,425.983 1023.08,426.09 1022.986,426.573C1022.669,428.203 1022.888,429.893 1022.821,431.552C1022.779,432.591 1022.506,439.393 1021.312,444.461C1019.903,450.441 1011.228,487.258 985.235,512.255C984.91,512.593 984.586,512.931 984.261,513.269C983.275,514.274 982.426,515.098 982.265,515.255C981.927,515.58 981.588,515.905 981.25,516.229C973.556,524.254 962.943,530.958 961.217,532.049C926.282,554.115 905.692,552.207 901.607,552.994C901.118,553.089 900.989,553.905 900.5,553.999L128.5,553.999C128.019,553.92 127.915,553.079 127.434,553C121.681,552.055 119.175,556.058 91.552,546.353C65.578,537.226 51.01,523.544 47.118,519.936C45.726,518.684 45.735,518.821 44.419,517.586C43.614,516.829 43.607,516.976 42.787,516.201C40.683,514.218 29.98,504.131 19.897,488.229C17.001,483.662 10.941,470.208 10.222,468.612C4.934,456.874 1.216,437.318 1.045,431.56C0.934,427.83 1.071,427.874 1.006,427.56C0.844,426.774 0.165,427.297 0,426.5L0,128.5C0.097,128.022 0.905,127.913 1.002,127.435C1.176,126.58 0.66,126.612 1.832,116.556C3.852,106.406 3.611,106.41 5.513,99.504L5.676,98.551C6.551,96.011 6.53,96.091 7.401,93.466C7.882,92.171 7.352,91.995 13.896,77.645C15.363,75.122 15.373,75.252 16.662,72.59C16.757,72.307 16.851,72.024 16.946,71.741C18.422,69.663 18.227,69.673 19.502,67.501C23.895,60.37 24.035,60.542 28.846,53.745C30.726,51.571 30.588,51.579 32.389,49.404C33.144,48.548 32.95,48.523 33.734,47.682C34.597,46.79 42.359,38.777 44.603,36.608C58.877,23.3 66.746,20.479 71.738,16.941C72.021,16.846 72.304,16.752 72.587,16.657C75.137,15.229 75.088,15.377 77.644,13.892C91.803,7.441 91.927,7.966 93.464,7.395C96.062,6.532 95.999,6.549 98.55,5.673L99.502,5.508C107.94,3.188 107.884,3.417 116.555,1.829C117.106,1.765 123.441,1.029 123.441,1.029C124.772,0.998 126.13,1.267 127.434,1.001C127.912,0.904 128.022,0.097 128.5,0Z" style="fill:rgb(8,74,109);fill-opacity:1;"/>
    </g>
    <g transform="matrix(2.149414,0,0,2.149414,0,0)">
        <path d="M793.509,529.634C777.048,530.097 169.868,530.117 149.491,529.628C134.654,528.121 104.989,526.351 71.101,496.962C38.745,468.902 31.252,431.893 29.942,425.422C27.001,410.894 27.353,410.745 27.353,204.5C27.353,156.816 21.278,107.76 64.641,63.636C107.028,20.506 160.206,24.578 163.5,24.578C369.5,24.578 575.5,24.578 781.5,24.578C874.52,24.839 914.968,99.572 915.638,151.497C916.669,231.404 915.814,377.82 915.699,397.5C915.275,470.136 863.956,524.117 793.509,529.634Z" style="fill:rgb(254,254,254);"/>
    </g>
    <g transform="matrix(2.149414,0,0,2.149414,0,0)">
        <path d="M899.916,147.475C898.855,149.545 899.005,149.621 899.005,210.5C899.005,404.125 898.985,404.15 899.172,404.505C899.374,404.888 899.78,405.137 899.983,405.519C897.024,448.369 870.397,504.033 796.532,513.878C793.336,511.913 793.165,512.596 789.5,513.115C787.946,513.336 788.747,514.085 788.498,514.407C771.572,514.551 171.834,514.502 155.502,514.433C152.303,510.93 151.529,511.579 147.466,513.947C144.16,513.536 123.234,510.939 107.345,502.815C46.535,471.722 44.021,416.025 43.086,405.522C43.268,405.152 44.943,401.754 43.604,400.397C43.443,400.234 43.083,400.657 42.921,400.493C42.897,380.814 42.7,222.181 42.917,154.505C43.079,103.756 78.056,51.143 141.469,41.286C149.992,39.961 150.062,40.106 717.5,40.106C787.625,40.106 811.546,37.739 839.424,53.638C891.099,83.108 897.648,125.653 899.916,147.475Z" style="fill:rgb(8,74,109);"/>
    </g>
    <g transform="matrix(2.149414,0,0,2.149414,0,0)">
        <path d="M701.5,308.056C674.879,308.056 673.862,307.672 673.661,309.531C673.226,313.576 674.321,397.829 673.055,399.074C672.422,399.696 672.252,399.624 616.5,399.622C612.288,399.621 610.446,400.77 610.439,396.501C610.403,375.54 609.994,137.242 610.476,134.496C610.814,132.572 611.814,132.848 662.5,132.848C729.734,132.848 761.597,129.152 792.958,159.039C823.821,188.452 831.549,264.35 776.235,295.025C775.072,295.67 773.827,296.158 772.656,296.789C770.223,298.101 770.99,299.456 786.946,328.254C794.48,341.85 825.202,398.116 825.156,398.503C825.011,399.707 824.331,399.638 763.5,399.622C758.367,399.62 757.278,400.838 754.89,396.294C751.2,389.271 709.938,310.749 708.135,308.84C707.397,308.06 707.237,308.388 701.5,308.056Z" style="fill:rgb(254,254,254);"/>
    </g>
    <g transform="matrix(2.149414,0,0,2.149414,0,0)">
        <path d="M122.93,209.511C123.064,207.501 123.199,205.491 123.333,203.481C124.521,194.93 125.641,181.045 140.965,162.914C179.156,117.726 288.998,113.064 321.033,178.729C326.805,190.561 330.74,211.857 326.473,212.27C325.035,212.41 274.979,212.297 270.502,212.287C266.864,212.279 267.492,210.952 266.808,207.434C259.983,172.315 195.206,175.684 188.942,201.61C181.106,234.045 231.995,237.03 260.588,245.193C322.607,262.901 328.295,293.045 331.687,315.487L332.011,321.511C331.876,324.511 331.741,327.511 331.606,330.511C331.465,331.516 330.877,361.249 305.179,381.101C267.814,409.966 174.609,416.957 133.65,367.38C117.109,347.36 113.535,312.33 117.55,311.801C119.104,311.596 169.021,311.752 173.497,311.766C177.596,311.779 176.443,313.539 177.26,317.55C186.859,364.718 260.277,356.111 266.839,329.596C276.789,289.397 207.957,295.671 165.679,275.132C126.263,255.984 124.979,230.297 123.498,221.5C123.322,219.495 123.146,217.489 122.97,215.484C122.957,213.493 122.943,211.502 122.93,209.511Z" style="fill:rgb(254,254,254);"/>
    </g>
    <g transform="matrix(2.149414,0,0,2.149414,0,0)">
        <path d="M434.738,399.175C432.936,394.77 434.972,192.768 433.688,185.381C431.985,184.155 431.712,184.715 356.501,184.441C352.657,184.427 353.482,182.364 353.482,158.5C353.482,134.877 352.678,132.853 356.503,132.848C374.094,132.828 575.549,132.596 576.398,132.923C577.983,133.534 577.741,134.203 577.74,177.5C577.74,182.221 579.282,184.435 574.499,184.441C499.476,184.543 498.357,183.889 497.67,185.572C496.898,187.464 498.23,397.51 496.967,398.889C495.725,400.246 437.125,399.775 434.738,399.175Z" style="fill:rgb(254,254,254);"/>
    </g>
    <g transform="matrix(2.149414,0,0,2.149414,0,0)">
        <path d="M750.924,226.531C745.513,260.321 721.845,258.01 676.495,257.853C675.16,257.848 673.644,257.969 673.613,255.494C673.542,249.842 672.747,186.671 673.955,184.839C674.532,183.963 675.377,184.117 699.5,184.127C721.347,184.135 753.343,185.338 750.924,226.531Z" style="fill:rgb(8,74,109);"/>
    </g>
    <g transform="matrix(2.149414,0,0,2.149414,0,0)">
        <path d="M149.491,529.628C169.868,530.117 777.048,530.097 793.509,529.634C791.944,531.179 791.567,531.002 694.5,531.002C150.398,531.002 150.202,531.072 149.651,530.417C149.478,530.212 149.664,529.834 149.491,529.628Z" style="fill:rgb(56,109,137);"/>
    </g>
    <g transform="matrix(2.149414,0,0,2.149414,0,0)">
        <path d="M899.983,405.519C899.78,405.137 899.374,404.888 899.172,404.505C898.985,404.15 899.005,404.125 899.005,210.5C899.005,149.621 898.855,149.545 899.916,147.475C900.414,157.729 900.304,394.831 899.983,405.519Z" style="fill:rgb(68,118,145);"/>
    </g>
    <g transform="matrix(2.149414,0,0,2.149414,0,0)">
        <path d="M433.688,185.381C434.972,192.768 432.936,394.77 434.738,399.175C434.387,399.039 433.963,399.383 433.611,399.247C432.926,398.984 433.001,398.66 433.001,193.5C433.001,189.303 432.414,189.31 433.688,185.381Z" style="fill:rgb(60,113,140);"/>
    </g>
    <g transform="matrix(2.149414,0,0,2.149414,0,0)">
        <path d="M0,115.5L1.832,116.556C0.66,126.612 1.176,126.58 1.002,127.435C0.905,127.913 0.097,128.022 0,128.5L0,115.5Z" style="fill:rgb(8,74,109);fill-opacity:0.31;"/>
    </g>
    <g transform="matrix(2.149414,0,0,2.149414,0,0)">
        <path d="M116.555,1.829L115.5,0L128.5,0C128.022,0.097 127.912,0.904 127.434,1.001C126.13,1.267 124.772,0.998 123.441,1.029C123.441,1.029 117.106,1.765 116.555,1.829Z" style="fill:rgb(8,74,109);fill-opacity:0.31;"/>
    </g>
    <g transform="matrix(2.149414,0,0,2.149414,0,0)">
        <path d="M788.498,514.407C788.747,514.085 787.946,513.336 789.5,513.115C793.165,512.596 793.336,511.913 796.532,513.878C793.854,514.054 791.176,514.231 788.498,514.407Z" style="fill:rgb(65,116,143);"/>
    </g>
    <g transform="matrix(2.149414,0,0,2.149414,0,0)">
        <path d="M147.466,513.947C151.529,511.579 152.303,510.93 155.502,514.433C152.823,514.271 150.145,514.109 147.466,513.947Z" style="fill:rgb(71,120,146);"/>
    </g>
    <g transform="matrix(2.149414,0,0,2.149414,0,0)">
        <path d="M332.011,321.511C332.348,322.148 335.088,327.332 331.606,330.511C331.741,327.511 331.876,324.511 332.011,321.511Z" style="fill:rgb(79,126,151);"/>
    </g>
    <g transform="matrix(2.149414,0,0,2.149414,0,0)">
        <path d="M331.687,315.487C332.015,315.752 332.772,314.965 332.939,316.5C333.307,319.896 332.897,319.808 332.011,321.511L331.687,315.487Z" style="fill:rgb(72,121,147);"/>
    </g>
    <g transform="matrix(2.149414,0,0,2.149414,0,0)">
        <path d="M123.333,203.481C123.199,205.491 123.064,207.501 122.93,209.511C122.711,209.072 120.611,204.857 122.42,203.393C122.658,203.201 123.096,203.674 123.333,203.481Z" style="fill:rgb(76,124,149);"/>
    </g>
    <g transform="matrix(2.149414,0,0,2.149414,0,0)">
        <path d="M122.97,215.484C123.146,217.489 123.322,219.495 123.498,221.5C120.558,219.042 121.823,217.748 122.97,215.484Z" style="fill:rgb(79,126,151);"/>
    </g>
    <g transform="matrix(2.149414,0,0,2.149414,0,0)">
        <path d="M42.921,400.493C43.083,400.657 43.443,400.234 43.604,400.397C44.943,401.754 43.268,405.152 43.086,405.522C43.031,403.846 42.976,402.17 42.921,400.493Z" style="fill:rgb(82,128,153);"/>
    </g>
    <g transform="matrix(2.149414,0,0,2.149414,0,0)">
        <path d="M984.261,513.269L984.05,514.055C983.719,514.386 983.388,514.718 983.057,515.05L982.265,515.255C982.426,515.098 983.275,514.274 984.261,513.269Z" style="fill:rgb(7,71,105);fill-opacity:0.32;"/>
    </g>
    <g transform="matrix(2.149414,0,0,2.149414,0,0)">
        <path d="M982.265,515.255L983.057,515.05C983.021,515.085 983.76,515.977 981.25,516.229C981.588,515.905 981.927,515.58 982.265,515.255Z" style="fill:rgb(7,72,106);fill-opacity:0.28;"/>
    </g>
    <g transform="matrix(2.149414,0,0,2.149414,0,0)">
        <path d="M985.235,512.255C985.059,513.917 985.145,513.946 985.045,514.05C984.814,514.288 984.28,513.816 984.05,514.055L984.261,513.269C984.586,512.931 984.91,512.593 985.235,512.255Z" style="fill:rgb(7,72,106);fill-opacity:0.28;"/>
    </g>
</svg>
