<svg version="1.1" xmlns="http://www.w3.org/2000/svg" style="display: block;" viewBox="0 0 2048 1173" width="1650" height="945" preserveAspectRatio="none">
<defs>
	<linearGradient id="Gradient1" gradientUnits="userSpaceOnUse" x1="1894.04" y1="305.71" x2="1928.96" y2="323.29">
		<stop class="stop0" offset="0" stop-opacity="1" stop-color="rgb(15,18,16)"/>
		<stop class="stop1" offset="1" stop-opacity="1" stop-color="rgb(42,40,43)"/>
	</linearGradient>
</defs>
<path transform="translate(0,0)" fill="rgb(255,255,255)" d="M 0 0 L 2048 0 L 2048 1173 L 0 1173 L 0 0 z"/>
<path transform="translate(0,0)" fill="rgb(0,0,0)" d="M 453.313 140.146 C 457.499 140.02 483.04 157.895 490.07 161.441 C 512.079 172.539 533.703 183.712 556.506 193.184 C 609.367 215.377 664.379 232.052 720.665 242.944 C 732.731 245.335 744.882 247.267 757.094 248.737 C 764.866 249.701 790.614 252.093 796.477 254.407 C 804.118 257.472 810.222 263.457 813.438 271.036 C 819.969 286.168 818.078 318.706 818.029 336.067 L 817.501 422.266 C 817.17 474.495 820.182 528.983 813.396 580.71 C 788.45 770.878 617.331 908.698 451.284 978.545 C 444.453 977.779 427.247 967.732 420.181 964.146 C 408.234 956.678 390.403 950.703 379.192 942.972 C 358.55 928.738 334.989 916.654 314.517 902.78 C 238.72 851.414 170.781 782.628 129.783 700.032 C 111.855 664.787 99.2593 627.076 92.4072 588.132 C 89.1754 570.046 86.9979 551.787 85.8858 533.449 C 81.7783 452.898 87.202 368.862 84.087 287.957 C 82.6173 249.784 118.85 252.198 146.843 248.973 C 232.464 238.533 315.634 213.359 392.673 174.563 C 406.757 167.564 420.543 159.982 433.995 151.835 C 439.595 148.515 448.135 142.599 453.313 140.146 z"/>
<path transform="translate(0,0)" fill="rgb(255,255,255)" d="M 294.03 491.606 C 318.385 517.076 343.268 542.034 368.665 566.466 C 377.72 575.328 387.538 586.047 396.643 594.385 C 397.738 593.734 403.773 587.157 405.462 585.484 C 474.711 516.884 548.651 449.643 615.954 379.357 C 637.466 400.928 659.359 422.115 681.622 442.91 C 665.721 458.711 644.073 476.316 626.632 493.052 L 468.944 647.107 L 419.515 695.295 C 413.425 701.339 402.753 711.161 397.951 717.57 C 395.952 715.606 393.397 712.931 391.313 711.18 L 390.712 712.852 C 392.242 715.135 392.455 715.492 393.168 718.139 C 390.136 717.191 301.456 628.166 289.212 616.522 C 286.423 613.869 286.611 612.482 287.297 609.126 C 270.136 592.457 244.392 569.683 229.219 553.54 C 248.948 533.555 275.767 513.98 294.03 491.606 z"/>
<path transform="translate(0,0)" fill="rgb(34,34,35)" d="M 287.297 609.126 L 363.137 683.174 C 366.646 686.606 389.819 708.986 391.313 711.18 L 390.712 712.852 C 392.242 715.135 392.455 715.492 393.168 718.139 C 390.136 717.191 301.456 628.166 289.212 616.522 C 286.423 613.869 286.611 612.482 287.297 609.126 z"/>
<path transform="translate(0,0)" fill="rgb(34,34,35)" d="M 489.943 495.047 L 490.481 495.929 C 487.742 499.037 484.959 501.963 482.109 504.967 L 481.669 504.41 C 482.095 502.093 487.889 497.048 489.943 495.047 z"/>
<path transform="translate(0,0)" fill="rgb(0,0,0)" d="M 1897.38 255.792 C 1856.15 197.447 1821.3 207.112 1757.12 207.217 L 1619.13 207.334 L 1014.31 207.337 L 817.143 207.348 C 782.417 207.34 744.889 207.447 710.414 206.58 C 693.008 206.142 632.643 194.793 618.189 186.702 L 617.783 184.667 C 618.429 184.244 619.074 183.822 619.72 183.399 C 707.239 183.212 794.761 183.818 882.288 183.752 L 1586.76 183.617 L 1758.52 183.323 C 1783.09 183.25 1816.85 181.455 1841 184.637 C 1868.29 188.233 1898.41 216.158 1913.22 238.365 C 1940.31 278.967 1933.83 323.496 1933.86 371.521 L 1933.92 520.21 L 1933.89 668.678 C 1933.86 696.935 1935.72 733.827 1930.6 760.998 C 1921.31 810.35 1875.03 858.986 1823.03 859.826 C 1813.09 859.976 1803.05 859.941 1793.11 859.939 L 1731.43 859.913 L 1529.45 859.957 L 969.572 859.988 L 786.429 859.935 C 755.733 859.926 719.221 859.063 689.001 860.208 C 705.106 845.647 720.537 831.865 735.013 815.591 C 786.273 757.965 826.62 681.448 836.371 604.522 L 1574.85 604.226 L 1803.55 604.226 L 1874.48 604.186 C 1884.86 604.186 1901.56 604.747 1911.19 603.921 L 1911.17 603.353 C 1910.94 520.574 1910.25 436.176 1911.12 353.456 C 1907.62 314.505 1918.7 295.994 1897.38 255.792 z"/>
<path transform="translate(0,0)" fill="rgb(44,43,44)" d="M 1911.12 353.456 C 1911.79 358.004 1912.13 368.705 1912.96 371.626 C 1914.34 368.979 1915.14 361.107 1915.67 357.712 L 1915.59 470.277 C 1915.72 487.478 1917.24 594.617 1913.58 602.828 C 1912.91 603.159 1911.85 603.755 1911.19 603.921 L 1911.17 603.353 C 1910.94 520.574 1910.25 436.176 1911.12 353.456 z"/>
<path transform="translate(0,0)" fill="rgb(34,34,35)" d="M 1911.17 603.353 C 1916.24 593.749 1910.06 486.108 1911.87 465.481 C 1912.12 462.641 1911.52 461.191 1912.71 457.753 L 1913.74 458.324 C 1914.9 461.765 1914.51 468.577 1914.48 472.474 L 1915.59 470.277 C 1915.72 487.478 1917.24 594.617 1913.58 602.828 C 1912.91 603.159 1911.85 603.755 1911.19 603.921 L 1911.17 603.353 z"/>
<path transform="translate(0,0)" fill="url(#Gradient1)" d="M 1897.38 255.792 C 1920.97 265.902 1916.22 336.346 1915.67 357.712 C 1915.14 361.107 1914.34 368.979 1912.96 371.626 C 1912.13 368.705 1911.79 358.004 1911.12 353.456 C 1907.62 314.505 1918.7 295.994 1897.38 255.792 z"/>
<path transform="translate(0,0)" fill="rgb(255,255,255)" d="M 1402.34 675.929 C 1432.43 670.813 1460.95 691.124 1465.96 721.233 C 1470.96 751.343 1450.54 779.785 1420.41 784.677 C 1390.45 789.543 1362.18 769.256 1357.21 739.305 C 1352.23 709.354 1372.41 681.017 1402.34 675.929 z"/>
<path transform="translate(0,0)" fill="rgb(0,0,0)" d="M 1403.15 697.025 C 1407.35 696.744 1414.05 696.649 1418.06 697.722 C 1424.52 699.416 1430.03 703.616 1433.37 709.39 C 1443.98 727.762 1437.74 753.622 1418.48 764.201 C 1382.95 776.057 1368.73 714.586 1403.15 697.025 z"/>
<path transform="translate(0,0)" fill="rgb(255,255,255)" d="M 1710.17 674.48 C 1717.93 674.395 1730.87 674.32 1737.67 677.362 C 1785.43 698.709 1787.48 759.848 1739.16 781.727 C 1728.24 785.942 1691.77 784.589 1677.94 784.531 C 1677.52 748.183 1677.94 711.057 1677.98 674.649 C 1688.38 675.012 1699.7 674.634 1710.17 674.48 z"/>
<path transform="translate(0,0)" fill="rgb(0,0,0)" d="M 1703.27 695.043 C 1713.93 695.234 1725.98 695.882 1734.83 702.248 C 1741.29 706.872 1745.56 713.954 1746.63 721.825 C 1748.34 733.982 1744.22 744.823 1737 754.379 C 1727.31 763.138 1714.67 762.008 1702.53 761.878 L 1703.27 695.043 z"/>
<path transform="translate(0,0)" fill="rgb(255,255,255)" d="M 1262.57 675.248 C 1277.18 675.483 1314.81 672.882 1325.6 677.344 C 1358.59 690.985 1352.29 723.599 1323.61 737.598 C 1329.8 740.181 1332.21 741.433 1337.89 745.003 C 1341.32 760.115 1344.88 772.866 1354.46 785.175 C 1348.13 784.635 1341.48 784.484 1335.1 784.237 L 1323.5 784.207 C 1320.64 771.851 1317.26 756.699 1313.6 744.74 C 1305.72 743.914 1294 744.289 1285.79 744.326 C 1285.73 757.864 1285.53 771.401 1285.18 784.934 C 1277.48 784.8 1269.78 784.625 1262.08 784.409 C 1262.76 748.026 1262.93 711.636 1262.57 675.248 z"/>
<path transform="translate(0,0)" fill="rgb(0,0,0)" d="M 1285.99 696.887 C 1299.13 697.018 1307.93 697.672 1320.77 700.339 C 1321.38 706.157 1322.76 714.676 1319.72 719.712 C 1309.03 723.444 1297.3 723.261 1285.95 723.799 C 1285.86 714.887 1285.97 705.814 1285.99 696.887 z"/>
<path transform="translate(0,0)" fill="rgb(255,255,255)" d="M 987.346 675.146 C 995.702 674.816 1004.78 675.02 1013.19 675.056 C 1014.2 683.676 1051.01 774.288 1057.12 785.117 C 1045.54 785.106 1033.95 784.878 1022.38 784.432 C 1021.63 777.897 1021.82 761.85 1014.25 760.979 C 1007.7 760.5 986.739 758.948 981.286 760.667 C 976.544 762.161 972.959 777.951 970.748 784.193 L 941.776 784.065 L 967.883 722.675 C 974.503 707.203 982.112 691.013 987.346 675.146 z"/>
<path transform="translate(0,0)" fill="rgb(0,0,0)" d="M 999.29 703.841 C 1001.92 707.873 1011.98 732.713 1015.09 739.286 L 1004.22 739.975 L 986.78 740.131 C 990.183 728.738 995.442 715.524 999.29 703.841 z"/>
<path transform="translate(0,0)" fill="rgb(255,255,255)" d="M 1165.17 675.458 C 1195.84 674.939 1249.02 665.543 1250.32 708.467 C 1251.22 738.498 1231.33 743.314 1206.81 744.646 C 1200.46 744.841 1194.01 744.568 1187.65 744.391 C 1187.33 757.708 1187.14 771.027 1187.06 784.347 L 1163.03 783.835 C 1165.27 751.538 1164.8 708.176 1165.17 675.458 z"/>
<path transform="translate(0,0)" fill="rgb(0,0,0)" d="M 1188.1 699.088 C 1204.04 698.927 1238.22 695.446 1221.07 722.792 C 1212.82 725.688 1196.57 725.179 1187.16 725.287 C 1187.83 716.82 1187.89 707.639 1188.1 699.088 z"/>
<path transform="translate(0,0)" fill="rgb(255,255,255)" d="M 1066.05 675.04 C 1108.7 675.058 1158.86 664.891 1149.67 725.475 L 1148.95 726.348 C 1135.72 742.249 1126.66 742.17 1107.25 743.728 L 1089.39 744.347 C 1088.81 756.986 1089.08 772.12 1089.02 784.929 L 1066.1 785.059 C 1063.94 769.595 1064.98 743.025 1065.41 727.104 C 1065.77 709.752 1065.98 692.397 1066.05 675.04 z"/>
<path transform="translate(0,0)" fill="rgb(0,0,0)" d="M 1096.76 696.322 C 1103.75 696.424 1125.06 694.513 1125.82 705.088 C 1126.54 714.971 1122.87 721.754 1112.68 723.733 C 1107.75 724.334 1092.58 726.861 1089.57 723.388 C 1091.96 712.337 1089.27 709.127 1090.26 699.04 C 1092.33 696.617 1093.11 697.124 1096.76 696.322 z"/>
<path transform="translate(0,0)" fill="rgb(255,255,255)" d="M 1587.15 675.37 C 1612 675.036 1636.84 674.86 1661.69 674.842 L 1661.86 698.211 C 1644.19 697.91 1626.52 697.976 1608.85 698.411 C 1608.96 705.469 1608.4 712.218 1607.93 719.249 C 1623.33 719.106 1640.91 719.283 1656.08 718.157 L 1656.13 739.126 C 1640.12 739.023 1624.1 739.011 1608.09 739.09 L 1608 761.732 C 1625.04 760.716 1645.16 761.034 1662.22 761.561 L 1662.12 784.585 C 1638.29 783.742 1610.26 784.529 1586.04 784.514 C 1585.88 748.13 1586.25 711.744 1587.15 675.37 z"/>
<path transform="translate(0,0)" fill="rgb(255,255,255)" d="M 1577.65 674.453 L 1580.25 674.807 C 1582.35 683.86 1554.93 739.264 1551.44 750.67 C 1551.03 751.999 1547.88 753.709 1546.55 754.338 C 1543.28 760.599 1536.12 777.919 1534.03 784.337 L 1508.39 783.899 C 1505.86 776.733 1501.55 768.635 1498.95 761.34 C 1488.09 730.976 1475.47 703.912 1461.67 674.788 L 1490.29 675.037 C 1502.49 703.026 1512.56 727.734 1521.9 756.779 C 1523.93 746.459 1530.3 730.925 1534.47 720.836 C 1541.18 704.597 1546.68 690.516 1552.12 673.822 C 1559.34 674.443 1569.73 674.094 1577.65 674.453 z"/>
<path transform="translate(0,0)" fill="rgb(34,34,35)" d="M 1577.65 674.453 L 1580.25 674.807 C 1582.35 683.86 1554.93 739.264 1551.44 750.67 C 1551.03 751.999 1547.88 753.709 1546.55 754.338 C 1556.65 727.622 1567.73 701.308 1577.65 674.453 z"/>
<path transform="translate(0,0)" fill="rgb(0,0,0)" d="M 1215.57 267.481 C 1253.32 267.276 1291.07 267.381 1328.82 267.795 C 1414.72 269.15 1470.88 321.985 1469.9 409.397 C 1469.47 447.102 1454.29 480.087 1427.15 506.06 C 1377.32 550.556 1323.08 543.309 1261.03 544.124 C 1245.71 544.325 1229.9 544.015 1214.64 544.788 C 1214.18 475.108 1214.46 344.48 1214.48 268.948 C 1214.85 268.459 1215.21 267.97 1215.57 267.481 z"/>
<path transform="translate(0,0)" fill="rgb(255,255,255)" d="M 1276.15 314.286 C 1334.25 313.691 1394.38 312.227 1399.06 390.93 C 1400.92 422.24 1397.71 450.727 1376.01 475.19 C 1344.87 502.374 1316.33 497.784 1275.99 498.009 L 1276.15 314.286 z"/>
<path transform="translate(0,0)" fill="rgb(0,0,0)" d="M 1584.62 266.882 L 1632.3 266.803 C 1640.36 266.796 1654.71 266.348 1662.05 267.728 C 1664.64 271.413 1683.87 321.224 1687.47 330.274 C 1705.31 374.477 1722.84 418.804 1740.05 463.253 C 1750.32 489.593 1760.96 519.084 1772.02 544.77 L 1703.15 544.861 C 1697.55 525.734 1686.27 496.459 1678.98 477.864 L 1667.39 477.863 L 1566.6 478.136 C 1560.03 499.324 1551.52 524.309 1545.86 544.933 L 1479.5 545.05 C 1490.06 519.772 1501.25 494.657 1510.71 468.923 C 1535.38 401.836 1563.74 335.259 1584.62 266.882 z"/>
<path transform="translate(0,0)" fill="rgb(255,255,255)" d="M 1621.15 316.681 C 1624.68 322.992 1631.87 344.349 1634.8 352.43 L 1663.04 431.155 C 1650.53 430.844 1637.08 431.038 1624.5 431 L 1584.06 430.924 C 1586.15 423.33 1590.23 413.526 1592.69 405.582 C 1601.61 376.859 1613.99 345.745 1621.15 316.681 z"/>
<path transform="translate(0,0)" fill="rgb(0,0,0)" d="M 968.362 267.57 C 1033.67 269.063 1103.89 267.852 1169.48 267.929 C 1169.81 284.824 1169.97 301.721 1169.97 318.619 C 1156.02 317.153 1127.33 317.973 1112.29 318.021 C 1105.61 322.164 1041.88 319.941 1030.51 320.226 C 1030.68 330.22 1031.68 374.243 1029.93 381.693 C 1036.95 380.599 1063.96 381.148 1072.55 381.147 L 1160.98 381.036 L 1161.11 433.629 C 1135.44 432.477 1105.62 433.886 1079.61 433.448 C 1068.46 433.26 1037.48 433.066 1028.31 434.515 C 1028.27 462.766 1026.77 518.769 1029.75 544.645 C 1015.77 543.115 983.968 544.124 968.729 544.224 C 969.826 452.621 968.003 359.358 968.362 267.57 z"/>
<path transform="translate(0,0)" fill="rgb(166,166,166)" d="M 1026.98 317.935 C 1052.22 317.606 1087.68 316.189 1112.29 318.021 C 1105.61 322.164 1041.88 319.941 1030.51 320.226 C 1030.68 330.22 1031.68 374.243 1029.93 381.693 C 1027.83 381.192 1028.81 381.655 1027.1 379.916 C 1025.76 371.74 1026.89 328.187 1026.98 317.935 z"/>
</svg>