<?xml version="1.0" encoding="UTF-8" standalone="no"?>
<!DOCTYPE svg PUBLIC "-//W3C//DTD SVG 1.1//EN" "http://www.w3.org/Graphics/SVG/1.1/DTD/svg11.dtd">
<svg width="100%" height="100%" viewBox="0 0 1147 515" version="1.1" xmlns="http://www.w3.org/2000/svg" xmlns:xlink="http://www.w3.org/1999/xlink" xml:space="preserve" xmlns:serif="http://www.serif.com/" style="fill-rule:evenodd;clip-rule:evenodd;stroke-linejoin:round;stroke-miterlimit:2;">
    <g transform="matrix(1,0,0,1,-1318.40402,-118.7242)">
        <g transform="matrix(1,0,0,1,-115,-392)">
            <g transform="matrix(2.6875,0,0,2.6875,0,0)">
                <path d="M704.08,255.5C704.099,283.854 710.084,336.641 626.367,379.227C620.118,382.406 618.712,384.239 598.3,371.83C529.582,330.055 532.799,292.236 533.654,227.5C533.768,218.884 533.558,216.395 544.445,215.002C608.886,206.756 609.886,182.863 624.732,192.144C651.878,209.115 689.549,214.202 695.44,214.997C705.801,216.396 704.106,220.578 704.08,255.5Z" style="fill:rgb(1,1,1);"/>
            </g>
        </g>
        <g transform="matrix(1,0,0,1,-115,-392)">
            <g transform="matrix(2.6875,0,0,2.6875,0,0)">
                <path d="M657.807,198.879C660.899,198.501 660.91,199.251 764.5,199.191C937.275,199.092 937.236,199.524 939.575,200.257C963.276,207.688 959.72,229.672 959.722,257.499C959.727,333.582 960.238,334.075 956.058,341.255C946.749,357.246 936.964,354.655 882.501,354.675C693.719,354.744 693.82,355.134 677.418,354.779C668.904,354.595 694.304,346.18 706.193,305.419C708.741,296.685 708.706,295.841 711.504,295.819C746.998,295.541 952.602,296.116 953.484,295.471C954.723,294.564 954.147,294.171 954.317,233.499C954.407,201.4 937.488,204.724 906.5,204.755C887.939,204.774 677.125,204.984 674.487,204.629C672.365,204.343 657.878,200.297 657.822,200.176C657.642,199.782 657.986,199.272 657.807,198.879Z" style="fill:rgb(2,3,2);"/>
            </g>
        </g>
        <g transform="matrix(1,0,0,1,-115,-392)">
            <g transform="matrix(2.6875,0,0,2.6875,0,0)">
                <path d="M853.008,231.993C852.803,232.432 851.907,232.192 851.702,232.631C850.697,234.787 852.388,235.263 844.206,261.406C839.607,276.099 839.184,279.871 837.419,280.027C825.469,281.078 825.934,278.215 825.22,275.577C818.464,250.627 816.992,251.06 814.066,234.609C810.108,212.353 812.6,240.015 812.643,240.498C812.786,242.076 813.096,242.063 813.13,275.501C813.138,282.861 809.793,280.913 802.539,280.101C800.347,279.855 800.818,278.602 800.843,229.498C800.843,228.862 800.847,222.113 801.559,221.587C801.7,221.483 820.229,219.956 821.371,222.566C821.645,223.192 829.053,247.711 829.329,248.558C831.515,255.252 833.138,267.356 834.528,258.512C834.667,257.631 845.141,222.793 845.938,221.918C846.731,221.046 864.939,220.192 865.571,222.478C865.609,222.612 866.156,278.258 865.321,279.364C864.582,280.343 853.023,281.064 852.805,278.459C852.467,274.425 853.206,232.701 853.008,231.993Z" style="fill:rgb(3,3,3);"/>
            </g>
        </g>
        <g transform="matrix(1,0,0,1,-115,-392)">
            <g transform="matrix(2.6875,0,0,2.6875,0,0)">
                <path d="M651.267,250.26C653.736,247.981 654.63,243.816 660.097,248.949C670.257,258.487 670.57,259.018 669.57,260.556C669.429,260.773 607.658,320.349 607.467,320.448C606.751,320.82 605.518,321.459 598.971,315.016C569.353,285.868 566.145,285.483 568.929,282.942C579.956,272.879 579.583,272.485 580.666,271.774C583.319,270.03 598.041,287.155 604.561,292.422C606.492,293.982 607.228,292.778 651.267,250.26Z" style="fill:rgb(252,253,252);"/>
            </g>
        </g>
        <g transform="matrix(1,0,0,1,-115,-392)">
            <g transform="matrix(2.6875,0,0,2.6875,0,0)">
                <path d="M781.502,238.958C777.268,238.897 776.375,240.302 774.151,236.707C766.776,224.789 740.469,229.654 746.911,258.386C750.662,275.117 774.613,273.312 775.518,259.499C775.77,255.658 761.425,260.345 761.355,255.51C761.345,254.848 761.242,247.75 762.398,247.294C762.804,247.134 787.375,246.546 788.323,247.648C788.674,248.057 789.814,279.074 787.663,279.853C785.911,280.488 778.937,280.496 778.494,278.502C778.228,277.299 778.761,273.94 775.533,276.545C757.973,290.719 720.873,273.184 734.893,236.655C742.686,216.351 780.693,212.327 788.555,236.485C788.603,236.635 788.994,237.836 788.454,238.457C787.674,239.353 787.512,238.867 781.502,238.958Z" style="fill:rgb(3,3,3);"/>
            </g>
        </g>
        <g transform="matrix(1,0,0,1,-115,-392)">
            <g transform="matrix(2.6875,0,0,2.6875,0,0)">
                <path d="M878.909,233.506C878.907,230.15 878.574,222.424 879.59,221.62C879.796,221.456 904.76,220.098 913.541,222.347C920.6,224.155 925.162,230.101 926.111,235.565C930.923,263.247 893.612,258.697 893.549,258.71C890.438,259.336 893.187,278.035 891.562,279.564C890.626,280.444 880.714,280.045 880.392,279.971C878.748,279.592 878.859,278.81 878.909,233.506Z" style="fill:rgb(3,3,3);"/>
            </g>
        </g>
        <g transform="matrix(1,0,0,1,-115,-392)">
            <g transform="matrix(2.6875,0,0,2.6875,0,0)">
                <path d="M904.505,338.082C904.252,338.062 901.348,337.829 901.348,337.829C899.532,337.378 899.695,336.672 900.244,314.474C900.267,313.529 900.31,311.538 911.502,312.472C922.281,313.373 922.926,324.473 922.582,326.51C920.307,340.001 908.634,338.042 904.505,338.082Z" style="fill:rgb(250,250,249);"/>
            </g>
        </g>
        <g transform="matrix(1,0,0,1,-115,-392)">
            <g transform="matrix(2.6875,0,0,2.6875,0,0)">
                <path d="M790.954,334.509C790.853,337.697 790.698,338.809 787.54,338.069C785.701,337.638 785.419,336.983 785.876,314.521C785.88,314.306 785.918,312.451 787.479,312.366C789.007,312.283 807.847,309.815 805.102,321.418C804.56,323.708 802.614,325.427 802.963,326.286C802.988,326.35 804.048,327.462 804.671,329.455C807.772,339.378 802.3,338.207 801.585,338.054C797.322,337.141 803.698,326.667 792.529,327.683C790.474,327.871 790.97,333.554 790.954,334.509Z" style="fill:rgb(248,248,247);"/>
            </g>
        </g>
        <g transform="matrix(1,0,0,1,-115,-392)">
            <g transform="matrix(2.6875,0,0,2.6875,0,0)">
                <path d="M904.543,247.932C900.243,248.012 892.138,249.61 892.102,245.514C892.038,238.075 891.12,231.566 894.501,231.528C896.596,231.504 914.957,229.057 912.461,241.493C911.267,247.436 905.131,247.829 904.543,247.932Z" style="fill:rgb(251,251,250);"/>
            </g>
        </g>
        <g transform="matrix(1,0,0,1,-115,-392)">
            <g transform="matrix(2.6875,0,0,2.6875,0,0)">
                <path d="M887.497,338.069C885.216,338.07 877.426,339.352 877.393,335.504C877.207,313.746 876.766,313.121 878.501,312.502C878.872,312.369 894.099,311.788 895.084,312.877C895.731,313.592 896.123,316.436 893.5,316.499C891.452,316.547 882.964,315.455 882.818,318.532C882.563,323.92 885.539,321.586 893.53,322.346C895.595,322.543 895.584,326.768 893.593,326.887C886.368,327.319 882.58,324.266 882.809,331.472C882.949,335.87 897.91,330.394 895.799,336.618C894.937,339.161 893.952,337.836 887.497,338.069Z" style="fill:rgb(250,250,249);"/>
            </g>
        </g>
        <g transform="matrix(1,0,0,1,-115,-392)">
            <g transform="matrix(2.6875,0,0,2.6875,0,0)">
                <path d="M772.501,338.055C771.283,338.043 764.108,338.125 763.511,337.49C762.651,336.574 762.53,313.558 763.645,312.687C764.652,311.9 779.463,312.377 779.528,312.393C779.925,312.491 784.721,316.53 776.5,316.51C770.681,316.495 767.717,314.718 768.235,320.532C768.515,323.678 770.098,322.054 778.518,322.337C781.07,322.424 781.369,326.645 778.553,326.876C771.583,327.447 767.801,324.53 768.2,331.539C768.409,335.219 780.609,331.932 781.293,334.567C782.4,338.832 776.345,338.057 772.501,338.055Z" style="fill:rgb(249,248,247);"/>
            </g>
        </g>
        <g transform="matrix(1,0,0,1,-115,-392)">
            <g transform="matrix(2.6875,0,0,2.6875,0,0)">
                <path d="M745.55,338.129C731.069,334.325 735.432,319.291 738.737,315.722C747.518,306.239 762.224,317.424 757.342,320.099C753.88,321.996 752.116,315.964 747.486,316.17C735.773,316.692 742.337,343.652 752.906,330.858C753.973,329.567 758.604,329.414 758.301,331.485C757.341,338.053 746.7,338.122 745.55,338.129Z" style="fill:rgb(249,249,247);"/>
            </g>
        </g>
        <g transform="matrix(1,0,0,1,-115,-392)">
            <g transform="matrix(2.6875,0,0,2.6875,0,0)">
                <path d="M844.185,327.505C844.196,320.765 843.955,313.596 844.785,312.794C845.169,312.423 845.233,312.145 859.509,312.325C862.963,312.368 862.977,316.398 859.498,316.461C852.61,316.587 849.207,314.558 849.629,321.483C849.829,324.761 860.039,321.906 861.092,324.598C863.091,329.707 849.993,325.645 849.624,329.514C849.019,335.864 851.027,338.27 846.51,338.12C843.097,338.006 844.201,330.295 844.185,327.505Z" style="fill:rgb(250,250,249);"/>
            </g>
        </g>
        <g transform="matrix(1,0,0,1,-115,-392)">
            <g transform="matrix(2.6875,0,0,2.6875,0,0)">
                <path d="M818.497,338.112C814.639,337.298 815.778,335.699 815.718,319.498C815.696,313.612 806.285,318.818 808.181,313.354C808.779,311.631 828.205,311.676 828.78,313.377C830.537,318.572 821.387,314.541 821.262,318.471C820.724,335.306 822.683,337.171 818.497,338.112Z" style="fill:rgb(249,249,248);"/>
            </g>
        </g>
        <g transform="matrix(1,0,0,1,-115,-392)">
            <g transform="matrix(2.6875,0,0,2.6875,0,0)">
                <path d="M917.033,324.507C916.848,326.513 917.15,333.131 909.5,333.492C903.934,333.755 905.868,330.986 905.852,325.501C905.833,319.054 904.147,315.822 910.491,316.59C916.957,317.372 916.769,323.329 917.033,324.507Z" style="fill:rgb(5,6,5);"/>
            </g>
        </g>
        <g transform="matrix(1,0,0,1,-115,-392)">
            <g transform="matrix(2.6875,0,0,2.6875,0,0)">
                <path d="M868.508,338.096C866.6,337.593 866.564,337.677 866.448,337.553C865.241,336.265 865.637,336.043 865.933,315.506C865.976,312.529 866.482,312.183 869.514,312.356C872.014,312.499 871.489,315.317 871.487,330.5C871.487,335.418 873.356,337.371 868.508,338.096Z" style="fill:rgb(246,246,244);"/>
            </g>
        </g>
        <g transform="matrix(1,0,0,1,-115,-392)">
            <g transform="matrix(2.6875,0,0,2.6875,0,0)">
                <path d="M838.092,332.501C837.596,337.304 837.604,339.974 833.364,337.668C831.737,336.783 832.347,336.284 832.792,314.514C832.858,311.28 836.932,312.305 837.382,312.654C838.324,313.383 838.085,317.805 838.092,332.501Z" style="fill:rgb(251,250,250);"/>
            </g>
        </g>
        <g transform="matrix(1,0,0,1,-115,-392)">
            <g transform="matrix(2.6875,0,0,2.6875,0,0)">
                <path d="M790.946,319.5C791.548,317.179 791.025,316.578 792.482,316.403C801.79,315.28 801.553,322.834 796.49,323.399C789.533,324.176 791.11,320.884 790.946,319.5Z" style="fill:rgb(4,4,4);"/>
            </g>
        </g>
    </g>
</svg>
