<svg version="1.1" xmlns="http://www.w3.org/2000/svg" style="display: block;" viewBox="0 0 2048 1300" width="2048" height="1300" preserveAspectRatio="none">
<path transform="translate(0,0)" fill="rgb(0,0,0)" d="M 0 0 L 2048 0 L 2048 1300 L 0 1300 L 0 0 z"/>
<path transform="translate(0,0)" fill="rgb(253,254,254)" d="M 206.901 175.179 L 1669.61 175.082 C 1670.2 229.191 1669.64 284.266 1669.66 338.461 L 1669.61 693.409 L 1669.67 844.215 C 1669.68 854.6 1670.29 900.181 1669.27 906.145 L 1667.14 906.972 L 206.698 907.051 C 206.678 854.567 206.553 801.919 206.797 749.437 C 206.862 735.534 210.744 721.783 210.809 706.258 C 211.249 609.828 210.518 513.393 210.977 416.964 C 211.002 411.72 209.33 406.707 208.048 401.671 C 206.896 397.151 206.911 392.315 206.907 387.68 C 206.855 316.847 206.612 246.012 206.901 175.179 z"/>
<path transform="translate(0,0)" fill="rgb(0,0,0)" d="M 568.482 315.135 C 582.852 314.106 600.828 328.453 613.994 335.037 C 634.054 345.617 655.652 355.354 676.971 363.012 C 717.91 377.718 760.24 384.003 803.01 389.826 C 812.668 392.211 818.286 404.793 817.933 413.372 C 815.626 469.459 821.925 533.053 815.593 588.275 C 813.131 610.421 808.237 632.23 801 653.305 C 764.476 758.179 672.468 821.584 576.706 867.869 C 572.839 868.891 571.96 869.136 568.141 867.293 C 479.894 824.69 392.142 762.315 351.993 670.858 C 342.463 648.742 335.989 625.432 332.752 601.569 C 330.946 588.627 329.789 575.604 329.287 562.547 C 327.385 512.961 330.082 461.561 328.944 411.752 C 328.374 386.805 355.093 388.558 373.696 386.184 C 426.101 379.496 476.514 362.706 523.739 339.155 C 538.761 331.706 553.408 321.656 568.482 315.135 z"/>
<path transform="translate(0,0)" fill="rgb(253,254,254)" d="M 680.832 474.732 C 683.899 477.114 692.088 485.558 695.201 488.606 L 722.922 515.505 C 698.218 537.784 673.401 562.531 649.396 585.808 C 611.996 622.232 574.33 658.381 536.399 694.252 C 514.757 675.229 488.238 648.246 466.999 627.862 C 453.593 616.349 437.606 600.081 423.866 587.538 C 438.45 574.642 452.978 560.785 467.25 547.477 C 489.194 569.854 513.426 592.604 536.311 614.009 C 584.287 569.404 633.843 520.395 680.832 474.732 z"/>
<path transform="translate(0,0)" fill="rgb(0,0,0)" d="M 683.178 343.44 C 690.276 342.791 702.041 343.247 709.566 343.282 L 757.295 343.337 L 919.076 343.292 L 1459.08 342.749 C 1476.59 342.583 1490.24 344.147 1506.48 351.358 C 1559.68 374.979 1551.09 435.998 1551.07 483.898 L 1551.08 600.879 L 1551.1 673.147 C 1551.09 691.471 1552.42 715.345 1548.18 732.841 C 1540.99 762.297 1512.93 785.753 1482.78 788.176 C 1457.78 790.183 1430.79 789.088 1405.6 789.066 L 1254.97 789.08 L 741.75 789.104 C 739.116 789.22 739.118 789.37 736.805 788.294 C 737.266 786.435 760.033 763.275 763.738 759.001 C 771.857 749.725 779.407 739.967 786.346 729.778 C 809.686 695.339 823.139 660.994 831.357 620.511 C 913.105 619.239 998.441 620.495 1080.49 620.467 L 1536.03 620.604 L 1536.06 488.396 C 1536.07 438.824 1546.93 368.804 1479.57 358.517 C 1463.86 356.118 1444.47 357.699 1428.3 357.734 L 1340.87 357.785 L 931.764 357.847 L 807.189 357.862 C 781.618 357.864 754.906 358.538 729.476 356.271 C 712.897 354.794 698.633 348.862 683.178 343.44 z"/>
<path transform="translate(0,0)" fill="rgb(253,254,254)" d="M 1380.71 666.969 C 1396.24 666.879 1423.19 664.617 1434.27 675.777 C 1449.57 691.183 1447.56 715.852 1433.95 731.299 C 1417.12 744.013 1400.98 741.391 1380.48 741.182 L 1380.71 666.969 z"/>
<path transform="translate(0,0)" fill="rgb(0,0,0)" d="M 1396.09 679.121 C 1404.03 678.944 1411.82 678.774 1418.6 683.438 C 1432.05 692.691 1429.54 711.319 1421.43 723.255 C 1413.88 729.386 1405.27 728.946 1396.05 729.089 L 1396.09 679.121 z"/>
<path transform="translate(0,0)" fill="rgb(253,254,254)" d="M 1051.93 667.036 C 1063.55 666.907 1075.63 666.408 1087.22 667.19 C 1103.34 668.277 1111.73 678.283 1108.38 694.528 C 1107.23 700.115 1102.18 702.745 1097.73 705.702 C 1099.09 708.19 1104.98 708.909 1106.42 717.68 C 1107.7 725.407 1107.45 733.279 1108.72 740.762 L 1108.88 741.674 L 1093.36 740.879 C 1086.17 719.138 1099.69 711.491 1067.05 711.848 L 1067.04 741.17 L 1051.76 741.188 L 1051.93 667.036 z"/>
<path transform="translate(0,0)" fill="rgb(0,0,0)" d="M 1067.12 679.067 C 1078.87 678.762 1101.59 677.7 1089.82 696.998 C 1081.98 700.854 1075.78 700.2 1067.1 700.301 L 1067.12 679.067 z"/>
<path transform="translate(0,0)" fill="rgb(253,254,254)" d="M 985.462 667.159 L 1038.07 667.125 L 1038.19 679.99 L 1001.01 679.959 L 1000.99 696.205 L 1036.12 696.15 L 1036.21 708.926 L 1001.02 708.962 L 1001.02 728.107 L 1039.71 728.073 L 1039.63 741.174 L 985.447 741.174 L 985.462 667.159 z"/>
<path transform="translate(0,0)" fill="rgb(253,254,254)" d="M 1314.84 667.061 L 1367 667.023 L 1367.02 679.944 L 1330.29 679.803 L 1330.24 696.176 L 1365.9 696.008 L 1365.93 708.893 L 1331.27 708.984 C 1329.42 711.412 1330.12 724.264 1330.14 728.131 L 1368.17 728.103 L 1368.1 741.211 L 1314.47 741.144 C 1314.09 717.345 1314.82 691.205 1314.84 667.061 z"/>
<path transform="translate(0,0)" fill="rgb(253,254,254)" d="M 938.71 666.299 C 959.582 664.252 968.726 671.806 975.159 690.884 L 958.588 691.021 C 952.897 677.732 938.333 674.121 929.313 685.126 C 913.485 704.435 936.706 753.782 958.296 720.083 C 958.354 719.617 959.011 718.288 959.235 717.785 C 963.356 716.738 970.905 717.311 975.415 717.451 C 973.896 721.583 972.535 725.06 970.228 728.864 C 962.761 743.449 933.902 746.543 922.049 736.639 C 897.505 716.13 903.752 671.236 938.71 666.299 z"/>
<path transform="translate(0,0)" fill="rgb(253,254,254)" d="M 1219.55 667.056 L 1269.89 667.015 L 1269.88 679.853 L 1234.92 679.781 L 1234.89 699.103 C 1243.31 699.061 1259.58 698.232 1267.22 699.349 C 1268.97 701.785 1268.68 705.025 1268.83 708.206 C 1268.49 709.627 1268.22 709.743 1267.44 711.053 C 1262.44 712.293 1240.99 711.52 1234.97 711.423 L 1234.94 741.178 L 1219.63 741.193 C 1219.29 716.792 1219.57 691.517 1219.55 667.056 z"/>
<path transform="translate(0,0)" fill="rgb(253,254,254)" d="M 1116.47 667.046 C 1135.69 667.344 1155.67 667.058 1174.95 667.054 L 1174.96 679.937 L 1153.84 679.831 L 1153.74 722.25 L 1153.71 741.241 L 1137.77 741.064 C 1137.55 720.795 1137.86 699.97 1137.92 679.657 L 1116.69 679.835 C 1116.46 675.975 1116.53 671.004 1116.47 667.046 z"/>
<path transform="translate(0,0)" fill="rgb(253,254,254)" d="M 1282.53 667.051 L 1298.74 667.053 L 1298.69 741.196 L 1282.43 741.17 C 1282.29 716.464 1282.32 691.757 1282.53 667.051 z"/>
<path transform="translate(0,0)" fill="rgb(253,254,254)" d="M 1186.42 666.959 L 1202.03 667.002 L 1201.92 741.246 L 1186.05 741.233 C 1185.94 716.475 1186.07 691.715 1186.42 666.959 z"/>
<path transform="translate(0,0)" fill="rgb(0,0,0)" d="M 1094.92 406.006 C 1113.44 406.564 1134.48 406.055 1153.19 406.036 C 1160.67 430.587 1168.02 455.18 1175.22 479.814 C 1179.36 494.002 1184.55 510.365 1187.23 524.681 C 1191.88 513.823 1197.63 493.684 1201.31 481.858 C 1209.24 456.729 1216.78 431.479 1223.93 406.117 L 1280.88 406.161 C 1282.19 460.699 1281.19 520.25 1281.1 575.006 L 1243.73 574.995 C 1245.22 534.668 1243.22 492.172 1244.53 451.248 L 1244.91 434.763 C 1239.59 449.101 1233.35 473.673 1228.86 489.222 C 1220.57 517.916 1211.94 546.515 1202.99 575.012 L 1168.78 575.069 C 1159.64 542.496 1150.28 509.985 1140.71 477.537 C 1137.54 466.583 1132.29 444.148 1128.83 435.19 L 1130.38 575.025 L 1094.48 575.066 C 1095.31 519.138 1094.86 462.036 1094.92 406.006 z"/>
<path transform="translate(0,0)" fill="rgb(0,0,0)" d="M 976.308 403.406 C 998.014 400.121 1032.52 408.869 1046.71 425.557 C 1055.71 436.145 1057.98 443.911 1059.71 457.054 C 1047.59 456.498 1032.51 456.938 1020.17 456.959 C 1019.35 454.664 1018.57 451.617 1017.41 449.544 C 1007.29 431.056 979.132 427.965 961.885 437.252 C 939.66 449.219 936.124 479.01 938.72 501.569 C 939.796 510.918 940.614 517.667 945.435 525.971 C 951.067 535.871 960.459 543.077 971.48 545.954 C 991.119 551.072 1016.73 544.033 1022.05 521.98 C 1022.76 519.054 1023.47 514.192 1021.84 511.58 C 1015.42 510.461 990.114 511.252 982.262 511.348 L 982.182 480.81 L 992.75 480.782 L 1060.02 480.52 L 1060.11 575.047 L 1031.67 575.048 C 1030.79 569.9 1029.56 564.427 1028.51 559.281 C 1017.48 570.594 1006.33 575.301 990.707 577.109 C 941.717 582.497 903.142 555.409 899.021 504.519 C 894.588 449.778 918.04 408.619 976.308 403.406 z"/>
<path transform="translate(0,0)" fill="rgb(0,0,0)" d="M 1318.92 406.357 C 1351.53 406.898 1413.96 399.455 1439.99 420.371 C 1467.97 442.852 1456.96 500.955 1419.52 509.343 C 1408.38 511.838 1402.5 512.768 1390.75 513.379 C 1380.1 513.806 1368.03 513.564 1357.28 513.581 L 1357.35 574.964 L 1318.82 575.042 L 1318.92 406.357 z"/>
<path transform="translate(0,0)" fill="rgb(253,254,254)" d="M 1357.2 434.892 C 1376.54 434.676 1416.15 428.882 1416.03 456.316 C 1415.98 466.643 1414.79 469.906 1407.84 477.153 C 1395.96 484.578 1372.08 483.199 1357.13 484.068 L 1357.2 434.892 z"/>
</svg>